<?xml version="1.0" encoding="UTF-8"?><!DOCTYPE svg PUBLIC"-//W3C//DTD SVG 1.1//EN""http://www.w3.org/Graphics/SVG/1.1/DTD/svg11.dtd"><svg xmlns="http://www.w3.org/2000/svg"><symbol id="Adressen" viewBox="0 0 24 24"><path class="coloring" d="M23 3a1 1 0 011 1v17h-4v-1.5a1 1 0 00-1-1h-1a1 1 0 00-1 1V21H7v-1.5a1 1 0 00-1-1H5a1 1 0 00-1 1V21H0V4a1 1 0 011-1h22zm-2 11h-6v2h6v-2zM7.5 11.5c-2.485 0-4.5 1.007-4.5 2.25V16h9v-2.25c0-1.243-2.015-2.25-4.5-2.25zM21 10h-6v2h6v-2zM7.5 6a2.5 2.5 0 100 5 2.5 2.5 0 000-5z" fill="#000" fill-rule="evenodd" /></symbol><symbol id="Controlling" viewBox="0 0 24 24"><g fill="none" fill-rule="evenodd"><mask id="a" fill="#fff"><path d="M0 0h24v24H0z" /></mask><path class="coloring" fill="#000" mask="url(#a)" d="M3 13v10h5V13zM10 7v16h5V7zM17 1v22h5V1z" /></g></symbol><symbol id="Daten" viewBox="0 0 24 24"><g fill="none" fill-rule="evenodd"><path d="M0 0h24v24H0z" /><path class="coloring" d="M24 9v10a2 2 0 01-2 2H2a2 2 0 01-2-2V9h24zM9 2a1 1 0 011 1v1h13a1 1 0 011 1v2H0V3a1 1 0 011-1h8z" fill="#000" /></g></symbol><symbol id="Im-Export" viewBox="0 0 24 24"><g fill="none" fill-rule="evenodd"><path d="M-.005 0v24h24V0z" /><path fill="#fff" d="M16.997 3l-6 8H15v10h4V11h3.995z" /><path class="coloring" d="M5 3v10H.995l6.003 8 6.003-8H9V3H5z" fill="#fff" /></g></symbol><symbol id="Nav-auf" viewBox="0 0 24 24"><g fill="none" fill-rule="evenodd"><path d="M0 0h24v24H0z" /><path class="coloring" d="M12 3c4.968 0 9 4.032 9 9s-4.032 9-9 9-9-4.032-9-9 4.032-9 9-9zm-1.573 3L9 7.41 13.636 12 9 16.59 10.427 18l6.073-6-6.073-6z" fill="#000" fill-rule="nonzero" /></g></symbol><symbol id="Nav-zu" viewBox="0 0 24 24"><g fill="none" fill-rule="evenodd"><path d="M0 0h24v24H0z" /><path class="coloring" d="M12 3c4.968 0 9 4.032 9 9s-4.032 9-9 9-9-4.032-9-9 4.032-9 9-9zm1.573 3L7.5 12l6.073 6L15 16.59 10.364 12 15 7.41 13.573 6z" fill="#000" fill-rule="nonzero" /></g></symbol><symbol id="Recherche" viewBox="0 0 24 24"><g fill="none" fill-rule="evenodd"><path d="M0 0h24v24H0z" /><circle class="coloring-stroke" stroke="#fff" stroke-width="3" cx="9" cy="9" r="7.5" /><rect class="coloring" fill="#fff" transform="rotate(45 19.5 19.5)" x="14" y="18" width="11" height="3" rx="1.5" /></g></symbol><symbol id="Statistik" viewBox="0 0 24 24"><g fill="none" fill-rule="evenodd"><path d="M0 0h24v24H0z" /><path d="M22 12c0 5.52-4.48 10-10 10S2 17.52 2 12 6.48 2 12 2v10z" fill="#000" fill-rule="nonzero" /><path class="coloring" d="M13 1c5.52 0 10 4.48 10 10H13z" fill="#000" fill-rule="nonzero" /></g></symbol><symbol id="Uebersicht" viewBox="0 0 24 24"><g fill="none" fill-rule="evenodd"><path d="M0 0h24v24H0z" /><path class="coloring" d="M22 13v8H2v-8h20zM11 3v8H2V3h9zm11 0v8h-9V3h9z" fill="#000" /></g></symbol><symbol id="Benutzer" viewBox="0 0 24 24"><g fill="none" fill-rule="evenodd"><path d="M0 0h24v24H0z" /><path class="coloring" d="M16.5 11c2.496 0 7.5 1.276 7.5 3.818V20h-7v-5.182c0-1.903-1.124-3.097-2.736-3.577.824-.16 1.609-.241 2.236-.241zm.006-2A3.488 3.488 0 0020 5.5C20 3.563 18.446 2 16.506 2A3.498 3.498 0 0013 5.5C13 7.437 14.566 9 16.506 9z" fill="#000" fill-rule="nonzero" /><path class="coloring" d="M7.5 11C5.004 11 0 12.276 0 14.818V20h15v-5.182C15 12.276 9.996 11 7.5 11zm.006-2A3.488 3.488 0 0011 5.5C11 3.563 9.446 2 7.506 2A3.498 3.498 0 004 5.5C4 7.437 5.566 9 7.506 9z" fill="#000" fill-rule="nonzero" /></g></symbol><symbol id="Katalog" viewBox="0 0 24 24"><g fill="none" fill-rule="evenodd"><path d="M0 0h24v24H0z" /><path class="coloring" d="M4 6H2v16h16v-2H4V6zm18-4H6v16h16V2zm-3 9H9V9h10v2zm-4 4H9v-2h6v2zm4-8H9V5h10v2z" fill="#000" fill-rule="nonzero" /></g></symbol><symbol id="Tools" viewBox="0 0 24 24"><g fill="none" fill-rule="evenodd"><path d="M0 0h24v24H0z" /><path class="coloring" d="M20.5 11H19V7c0-1.1-.9-2-2-2h-4V3.5a2.5 2.5 0 00-5 0V5H4c-1.1 0-1.99.9-1.99 2v3.8H3.5c1.49 0 2.7 1.21 2.7 2.7 0 1.49-1.21 2.7-2.7 2.7H2V20c0 1.1.9 2 2 2h3.8v-1.5c0-1.49 1.21-2.7 2.7-2.7 1.49 0 2.7 1.21 2.7 2.7V22H17c1.1 0 2-.9 2-2v-4h1.5a2.5 2.5 0 000-5z" fill="#000" fill-rule="nonzero" /></g></symbol><symbol id="Reports"><g fill="none" fill-rule="evenodd"><path d="M0 0h24v24H0z"/><path class="coloring" d="M21 13c0 5.52-4.48 10-10 10S1 18.52 1 13 5.48 3 11 3v10z" fill="#000" fill-rule="nonzero"/><path class="coloring" d="M13 1c5.52 0 10 4.48 10 10H13z" fill="#000" fill-rule="nonzero"/></g></symbol>

<symbol id="info_outline" height="24" viewBox="0 -960 960 960" width="24"><path d="M440-280h80v-240h-80v240Zm40-320q17 0 28.5-11.5T520-640q0-17-11.5-28.5T480-680q-17 0-28.5 11.5T440-640q0 17 11.5 28.5T480-600Zm0 520q-83 0-156-31.5T197-197q-54-54-85.5-127T80-480q0-83 31.5-156T197-763q54-54 127-85.5T480-880q83 0 156 31.5T763-763q54 54 85.5 127T880-480q0 83-31.5 156T763-197q-54 54-127 85.5T480-80Zm0-80q134 0 227-93t93-227q0-134-93-227t-227-93q-134 0-227 93t-93 227q0 134 93 227t227 93Zm0-320Z"/></symbol>

<symbol id="Configuration" height="24" viewBox="0 -960 960 960" width="24"><path d="m370-80-16-128q-13-5-24.5-12T307-235l-119 50L78-375l103-78q-1-7-1-13.5v-27q0-6.5 1-13.5L78-585l110-190 119 50q11-8 23-15t24-12l16-128h220l16 128q13 5 24.5 12t22.5 15l119-50 110 190-103 78q1 7 1 13.5v27q0 6.5-2 13.5l103 78-110 190-118-50q-11 8-23 15t-24 12L590-80H370Zm70-80h79l14-106q31-8 57.5-23.5T639-327l99 41 39-68-86-65q5-14 7-29.5t2-31.5q0-16-2-31.5t-7-29.5l86-65-39-68-99 42q-22-23-48.5-38.5T533-694l-13-106h-79l-14 106q-31 8-57.5 23.5T321-633l-99-41-39 68 86 64q-5 15-7 30t-2 32q0 16 2 31t7 30l-86 65 39 68 99-42q22 23 48.5 38.5T427-266l13 106Zm42-180q58 0 99-41t41-99q0-58-41-99t-99-41q-59 0-99.5 41T342-480q0 58 40.5 99t99.5 41Zm-2-140Z"/></symbol>

<symbol id="Harvester" height="24" viewBox="0 -960 960 960" width="24"><path d="M439-82q-76-8-141.5-42.5t-113.5-88Q136-266 108.5-335T81-481q0-155 102.5-268.5T440-880v80q-121 17-200 107.5T161-481q0 121 79 211.5T439-162v80Zm40-198L278-482l57-57 104 104v-245h80v245l103-103 57 58-200 200Zm40 198v-80q43-6 82.5-23t73.5-43l58 58q-47 37-101 59.5T519-82Zm158-652q-35-26-74.5-43T520-800v-80q59 6 113 28.5T733-792l-56 58Zm112 506-56-57q26-34 42-73.5t22-82.5h82q-8 59-30 113.5T789-228Zm8-293q-6-43-22-82.5T733-677l56-57q38 45 61 99.5T879-521h-82Z"/></symbol>

<symbol id="Logging" height="24" viewBox="0 -960 960 960" width="24"><path d="M120-160v-80h480v80H120Zm520-280q-83 0-141.5-58.5T440-640q0-83 58.5-141.5T640-840q83 0 141.5 58.5T840-640q0 83-58.5 141.5T640-440Zm-520-40v-80h252q7 22 16 42t22 38H120Zm0 160v-80h376q23 14 49 23.5t55 13.5v43H120Zm500-200h40v-160h-40v160Zm20-200q8 0 14-6t6-14q0-8-6-14t-14-6q-8 0-14 6t-6 14q0 8 6 14t14 6Z"/></symbol>

<symbol id="Indices" height="24" viewBox="0 -960 960 960" width="24"><path d="M480-120q-151 0-255.5-46.5T120-280v-400q0-66 105.5-113T480-840q149 0 254.5 47T840-680v400q0 67-104.5 113.5T480-120Zm0-479q89 0 179-25.5T760-679q-11-29-100.5-55T480-760q-91 0-178.5 25.5T200-679q14 30 101.5 55T480-599Zm0 199q42 0 81-4t74.5-11.5q35.5-7.5 67-18.5t57.5-25v-120q-26 14-57.5 25t-67 18.5Q600-528 561-524t-81 4q-42 0-82-4t-75.5-11.5Q287-543 256-554t-56-25v120q25 14 56 25t66.5 18.5Q358-408 398-404t82 4Zm0 200q46 0 93.5-7t87.5-18.5q40-11.5 67-26t32-29.5v-98q-26 14-57.5 25t-67 18.5Q600-328 561-324t-81 4q-42 0-82-4t-75.5-11.5Q287-343 256-354t-56-25v99q5 15 31.5 29t66.5 25.5q40 11.5 88 18.5t94 7Z"/></symbol>

<symbol id="Delete" height="24" viewBox="0 -960 960 960" width="24"><path d="M280-120q-33 0-56.5-23.5T200-200v-520h-40v-80h200v-40h240v40h200v80h-40v520q0 33-23.5 56.5T680-120H280Zm400-600H280v520h400v-520ZM360-280h80v-360h-80v360Zm160 0h80v-360h-80v360ZM280-720v520-520Z"/></symbol>

<symbol id="Add" height="48" viewBox="0 -960 960 960" width="48"><path d="M440-280h80v-160h160v-80H520v-160h-80v160H280v80h160v160Zm40 200q-83 0-156-31.5T197-197q-54-54-85.5-127T80-480q0-83 31.5-156T197-763q54-54 127-85.5T480-880q83 0 156 31.5T763-763q54 54 85.5 127T880-480q0 83-31.5 156T763-197q-54 54-127 85.5T480-80Zm0-80q134 0 227-93t93-227q0-134-93-227t-227-93q-134 0-227 93t-93 227q0 134 93 227t227 93Zm0-320Z"/></symbol>

<symbol id="Success" height="24" viewBox="0 -960 960 960" width="24"><path d="m424-296 282-282-56-56-226 226-114-114-56 56 170 170Zm56 216q-83 0-156-31.5T197-197q-54-54-85.5-127T80-480q0-83 31.5-156T197-763q54-54 127-85.5T480-880q83 0 156 31.5T763-763q54 54 85.5 127T880-480q0 83-31.5 156T763-197q-54 54-127 85.5T480-80Zm0-80q134 0 227-93t93-227q0-134-93-227t-227-93q-134 0-227 93t-93 227q0 134 93 227t227 93Zm0-320Z"/></symbol>

<symbol id="Error" height="24" viewBox="0 -960 960 960" width="24"><path d="M480-280q17 0 28.5-11.5T520-320q0-17-11.5-28.5T480-360q-17 0-28.5 11.5T440-320q0 17 11.5 28.5T480-280Zm-40-160h80v-240h-80v240Zm40 360q-83 0-156-31.5T197-197q-54-54-85.5-127T80-480q0-83 31.5-156T197-763q54-54 127-85.5T480-880q83 0 156 31.5T763-763q54 54 85.5 127T880-480q0 83-31.5 156T763-197q-54 54-127 85.5T480-80Zm0-80q134 0 227-93t93-227q0-134-93-227t-227-93q-134 0-227 93t-93 227q0 134 93 227t227 93Zm0-320Z"/></symbol>

<symbol id="Lock" height="24" viewBox="0 -960 960 960" width="24"><path d="M240-80q-33 0-56.5-23.5T160-160v-400q0-33 23.5-56.5T240-640h40v-80q0-83 58.5-141.5T480-920q83 0 141.5 58.5T680-720v80h40q33 0 56.5 23.5T800-560v400q0 33-23.5 56.5T720-80H240Zm0-80h480v-400H240v400Zm240-120q33 0 56.5-23.5T560-360q0-33-23.5-56.5T480-440q-33 0-56.5 23.5T400-360q0 33 23.5 56.5T480-280ZM360-640h240v-80q0-50-35-85t-85-35q-50 0-85 35t-35 85v80ZM240-160v-400 400Z"/></symbol>

<symbol id="alarm_off" height="24" viewBox="0 -960 960 960" width="24"><path d="m798-270-60-60q11-27 16.5-52.5T760-436q0-116-82-200t-198-84q-28 0-54 4.5T374-700l-60-60q38-20 79.5-30t86.5-10q74 0 139.5 28T734-694.5Q783-645 811.5-579T840-436q0 45-11 86.5T798-270Zm52-370L680-810l56-56 170 170-56 56ZM820-24 694-150q-45 33-99.5 51.5T480-80q-74 0-139.5-28T226-184q-49-48-77.5-113T120-436q0-62 18.5-116.5T192-652l-34-34-48 48-56-56 48-48-74-74 56-56L876-80l-56 56ZM480-159q42 0 82-13t74-36L248-594q-23 35-35.5 75.5T200-436q0 116 82 196.5T480-159Zm-38-242Zm114-114Z"/></symbol>

<symbol id="alarm_on" height="24" viewBox="0 -960 960 960" width="24"><path d="m438-298 226-226-57-57-169 169-85-85-57 57 142 142Zm42 218q-75 0-140.5-28.5t-114-77q-48.5-48.5-77-114T120-440q0-75 28.5-140.5t77-114q48.5-48.5 114-77T480-800q75 0 140.5 28.5t114 77q48.5 48.5 77 114T840-440q0 75-28.5 140.5t-77 114q-48.5 48.5-114 77T480-80Zm0-360ZM224-866l56 56-170 170-56-56 170-170Zm512 0 170 170-56 56-170-170 56-56ZM480-160q117 0 198.5-81.5T760-440q0-117-81.5-198.5T480-720q-117 0-198.5 81.5T200-440q0 117 81.5 198.5T480-160Z"/></symbol>

</svg>
